<svg width="111" height="49" viewBox="0 0 111 49" fill="none" xmlns="http://www.w3.org/2000/svg">
<rect x="0.35597" y="0.289808" width="109.42" height="48.4204" rx="3.24329" fill="white"/>
<rect x="0.35597" y="0.289808" width="109.42" height="48.4204" rx="3.24329" stroke="#E0E0E0" stroke-width="0.579617"/>
<path d="M80.6152 25.9674L67.0815 23.8467L68.8756 31.9112L80.6152 25.9674Z" fill="#D12053"/>
<path d="M80.615 25.966L70.417 11.7969L67.084 23.8477L80.615 25.966Z" fill="#E2136E"/>
<path d="M66.7683 23.6844L56.0828 10.0283L70.0758 11.6999L66.7683 23.6844Z" fill="#D12053"/>
<path d="M61.9004 17.9793L55.9668 12.3877H57.5287L61.9004 17.9793Z" fill="#9E1638"/>
<path d="M83.5013 19.0762L80.9901 25.8876L76.9196 20.2578L83.5013 19.0762Z" fill="#D12053"/>
<path d="M70.4551 31.5006L80.3086 27.5423L80.7221 26.2842L70.4551 31.5006Z" fill="#E2136E"/>
<path d="M62.5743 38.9712L66.7955 24.1641L68.9366 33.7981L62.5743 38.9712Z" fill="#9E1638"/>
<path d="M83.8944 19.1309L82.8582 21.9432L86.5945 21.882L83.8944 19.1309ZM23.538 20.2589C23.7192 20.2742 23.9029 20.3074 24.0969 20.3074C24.2908 20.3074 24.4491 20.2742 24.6558 20.2589V26.2486C25.2453 25.2456 25.9879 24.5846 27.0802 24.5846C29.0555 24.5846 29.9028 26.5395 29.9028 28.3362C29.9028 30.4876 28.7544 32.5471 26.7408 32.5471C26.3377 32.5559 25.9398 32.4543 25.5902 32.2532C25.2407 32.0521 24.9529 31.7593 24.7579 31.4063C24.421 31.7023 24.1224 32.0571 23.8034 32.3786H23.5482L23.538 20.2589ZM24.6302 29.0686C24.6302 30.8142 25.3703 32.0316 26.5877 32.0316C28.1674 32.0316 28.6753 29.9082 28.6753 28.4025C28.6753 26.6544 28.0985 25.2788 26.7306 25.2635C25.133 25.2507 24.6302 27.1418 24.6302 29.0712V29.0686Z" fill="#E2136E"/>
<path d="M35.0561 24.134L33.8668 25.6653C34.9847 27.2986 36.1433 28.8987 37.2662 30.5525L38.3993 32.3389V32.4282C38.1211 32.4104 37.8685 32.3747 37.6337 32.3747C37.3989 32.3747 37.1029 32.4104 36.8528 32.4282C36.544 31.8566 36.2377 31.3283 35.8881 30.8102L32.8256 26.2803C32.7567 26.2089 32.5908 26.1527 32.5908 26.2267V32.4282C32.3662 32.4104 32.1697 32.3747 31.9758 32.3747C31.7818 32.3747 31.5572 32.4104 31.3607 32.4282V20.26C31.5572 20.2753 31.769 20.3136 31.9758 20.3136C32.1825 20.3136 32.3662 20.2753 32.5908 20.26V25.752C32.5908 25.8592 32.8001 25.7878 32.9379 25.6449C33.2037 25.3693 33.4526 25.0778 33.6831 24.772L37.1258 20.2549C37.307 20.2702 37.4882 20.3085 37.6847 20.3085C37.8813 20.3085 38.0318 20.2702 38.2309 20.2549L35.0561 24.134ZM44.3176 31.0578C44.3176 31.6907 44.2767 32.0123 45.1011 31.803V32.1577C44.9664 32.2252 44.8253 32.2791 44.68 32.3185C43.9526 32.464 43.3503 32.3338 43.238 31.3819L43.113 31.5223C42.8698 31.8409 42.5562 32.0988 42.1967 32.2759C41.8372 32.453 41.4415 32.5445 41.0407 32.5431C40.0505 32.5431 39.1828 31.7622 39.1828 30.5652C39.1828 28.7201 40.4588 28.4776 41.7681 28.2352C42.8756 28.0259 43.2534 27.929 43.2534 27.1506C43.2534 25.9511 42.6664 25.2569 41.6175 25.2569C41.2593 25.2499 40.9075 25.3531 40.6099 25.5526C40.3123 25.7521 40.0832 26.0382 39.9535 26.3722H39.8004V25.4739C40.4302 24.9259 41.2298 24.6122 42.0641 24.5857C43.5315 24.5857 44.3303 25.4739 44.3303 27.3037L44.3176 31.0578ZM43.1998 28.3858L42.7072 28.4981C41.7553 28.7073 40.3287 28.8681 40.3287 30.3458C40.3287 31.3666 40.8391 31.877 41.6966 31.877C42.1402 31.8224 42.5458 31.5995 42.8297 31.2543C42.9318 31.1369 43.2125 30.8613 43.2125 30.7439L43.1998 28.3858ZM46.8109 30.8434C47.1427 31.4789 47.7603 32.048 48.4187 32.048C48.7944 32.0288 49.1479 31.8641 49.4042 31.5887C49.6605 31.3134 49.7995 30.949 49.7918 30.5729C49.7918 28.3883 46.4868 29.8073 46.4868 26.9796C46.4868 25.4279 47.5077 24.5883 48.7658 24.5883C49.3222 24.576 49.8709 24.721 50.3481 25.0068C50.2103 25.3812 50.0994 25.765 50.0163 26.1553H49.8887C49.705 25.6219 49.2175 25.0859 48.6995 25.0859C48.0002 25.0859 47.4234 25.5581 47.4234 26.4334C47.4234 28.5032 50.7284 27.4007 50.7284 29.991C50.7284 31.7239 49.386 32.5431 48.1508 32.5431C47.5322 32.5426 46.9266 32.3655 46.4052 32.0327C46.5304 31.6444 46.6285 31.2479 46.6986 30.846L46.8109 30.8434ZM52.6118 20.26C52.7981 20.2753 52.9793 20.3085 53.1732 20.3085C53.3672 20.3085 53.5254 20.2753 53.7347 20.26V26.1527C54.2247 25.1651 54.9929 24.5857 55.9882 24.5857C57.6113 24.5857 58.2417 25.6984 58.2417 27.7401V32.4282C58.0298 32.4104 57.8665 32.3798 57.6802 32.3798C57.4939 32.3798 57.3025 32.4129 57.1187 32.4282V28.1101C57.1187 26.3237 56.7589 25.4228 55.5671 25.4228C54.3064 25.4228 53.7347 26.3314 53.7347 28.0132V32.4282C53.5254 32.4104 53.3595 32.3798 53.1732 32.3798C52.9869 32.3798 52.8006 32.4129 52.6118 32.4282V20.26Z" fill="#231F20"/>
</svg>
