<svg width="40" height="40" viewBox="0 0 40 40" fill="none" xmlns="http://www.w3.org/2000/svg">
<path d="M20 3.33325C16.7036 3.33325 13.4813 4.31073 10.7405 6.14209C7.99966 7.97345 5.86346 10.5764 4.60199 13.6219C3.34053 16.6673 3.01048 20.0184 3.65357 23.2514C4.29665 26.4844 5.884 29.4542 8.21487 31.785C10.5457 34.1159 13.5155 35.7033 16.7485 36.3463C19.9815 36.9894 23.3326 36.6594 26.378 35.3979C29.4235 34.1365 32.0265 32.0002 33.8578 29.2594C35.6892 26.5186 36.6667 23.2963 36.6667 19.9999C36.6667 17.8112 36.2356 15.644 35.398 13.6219C34.5604 11.5998 33.3327 9.76245 31.7851 8.21481C30.2375 6.66716 28.4001 5.4395 26.378 4.60193C24.356 3.76435 22.1887 3.33325 20 3.33325ZM16.6667 27.4999V12.4999L26.6667 19.9999L16.6667 27.4999Z" fill="#3066B7"/>
</svg>
