<svg width="342" height="289" viewBox="0 0 342 289" fill="none" xmlns="http://www.w3.org/2000/svg">
<g filter="url(#filter0_dddddd_17026_1239)">
<rect x="106.812" y="0.5" width="128.154" height="49" rx="6.03077" fill="white"/>
<rect x="107.189" y="0.876923" width="127.4" height="48.2462" rx="5.65385" stroke="#E0E0E0" stroke-width="0.753846"/>
<g clip-path="url(#clip0_17026_1239)">
<path d="M134.898 32.7849H131.792V24.9887H129.676V22.4503H131.792V20.6442C131.792 18.5039 132.728 16.9688 135.825 16.9688C136.48 16.9688 137.509 17.1015 137.509 17.1015V19.4587H136.429C135.328 19.4587 134.898 19.796 134.898 20.7279V22.4503H137.468L137.239 24.9887H134.898V32.7849H134.898ZM142.024 22.2474C141.979 22.2474 141.933 22.2491 141.887 22.2501C139.007 22.2501 137.689 24.4313 137.689 27.5278C137.689 31.4287 139.398 32.9897 141.909 32.9897C143.346 32.9897 144.29 32.3808 144.863 31.2444V32.7856H147.818V22.4513H144.863V24.0405C144.395 23.018 143.425 22.2594 142.025 22.2471L142.024 22.2474ZM142.775 24.6896C143.985 24.6896 144.711 25.5391 144.711 26.9843L144.714 28.4603C144.714 29.4344 144.114 30.5738 142.775 30.5738C140.717 30.5738 140.772 28.3359 140.772 27.5905C140.772 25.0833 141.869 24.6896 142.775 24.6896ZM149.01 27.6194C149.01 26.3635 148.95 22.2544 154.267 22.2544C156.401 22.2544 157.293 22.9376 157.293 22.9376L156.576 25.1746C156.576 25.1746 155.686 24.6813 154.526 24.6813C153.041 24.6813 152.093 25.5484 152.093 27.0739L152.095 28.1679C152.095 29.6339 153.009 30.6123 154.529 30.6123C155.586 30.6123 156.56 30.1143 156.56 30.1143L157.274 32.3045C157.274 32.3045 156.459 32.9921 154.282 32.9921C149.219 32.9921 149.01 29.3053 149.01 27.6194H149.01ZM174.614 22.2504C177.494 22.2504 178.832 24.4316 178.832 27.5284C178.832 31.4294 177.123 32.9904 174.612 32.9904C173.176 32.9904 172.114 32.3815 171.54 31.2451V32.7862L168.623 32.7849V17.2828L171.72 17.0109V23.9008C172.167 22.6953 173.636 22.2504 174.614 22.2504H174.614ZM173.746 24.6896C172.536 24.6896 171.72 25.5391 171.72 26.9843L171.717 28.4603C171.715 29.4344 172.282 30.5738 173.746 30.5738C175.804 30.5738 175.749 28.3359 175.749 27.5905C175.749 25.0833 174.652 24.6896 173.746 24.6896ZM162.666 22.2587C159.4 22.2587 157.675 24.0521 157.675 27.2389V27.8312C157.675 31.9675 160.097 33.0326 162.984 33.0326C165.871 33.0326 167.061 32.2421 167.061 32.2421L166.481 30.1372C166.481 30.1372 164.987 30.7773 163.356 30.7773C161.724 30.7773 160.937 30.3434 160.751 28.7067H167.309V27.0182C167.309 23.5611 165.373 22.2587 162.666 22.2587ZM162.745 24.3662C163.876 24.3662 164.609 25.0644 164.568 26.6835H160.756C160.823 24.9794 161.613 24.3662 162.746 24.3662H162.745ZM185.008 22.2444C181.653 22.2444 179.887 24.1478 179.887 27.559C179.887 32.2391 182.931 32.9927 185.013 32.9927C188.061 32.9927 190.089 31.3404 190.089 27.6015C190.089 23.8626 187.809 22.2444 185.008 22.2444ZM184.966 24.6979C186.441 24.6979 187.025 25.8094 187.025 27.0749V28.1629C187.025 29.6957 186.208 30.5821 184.96 30.5821C183.793 30.5821 182.974 29.7528 182.974 28.1629V27.0749C182.974 25.3791 183.949 24.6979 184.966 24.6979ZM196.259 22.2444C192.904 22.2444 191.138 24.1478 191.138 27.559C191.138 32.2391 194.182 32.9927 196.264 32.9927C199.312 32.9927 201.34 31.3404 201.34 27.6015C201.34 23.8626 199.06 22.2444 196.259 22.2444ZM196.217 24.6979C197.692 24.6979 198.276 25.8094 198.276 27.0749V28.1629C198.276 29.6957 197.458 30.5821 196.211 30.5821C195.045 30.5821 194.225 29.7528 194.225 28.1629V27.0749C194.225 25.3791 195.2 24.6979 196.217 24.6979ZM202.51 32.7849V17.2828L205.617 17.0109V27.4013L208.698 22.4503H211.978L208.764 27.5782L212.102 32.7852H208.813L205.617 27.7293V32.7852H202.51V32.7849Z" fill="#1877F2"/>
</g>
</g>
<defs>
<filter id="filter0_dddddd_17026_1239" x="0.689842" y="0.5" width="340.399" height="287.776" filterUnits="userSpaceOnUse" color-interpolation-filters="sRGB">
<feFlood flood-opacity="0" result="BackgroundImageFix"/>
<feColorMatrix in="SourceAlpha" type="matrix" values="0 0 0 0 0 0 0 0 0 0 0 0 0 0 0 0 0 0 127 0" result="hardAlpha"/>
<feOffset dy="3.67085"/>
<feGaussianBlur stdDeviation="1.46834"/>
<feColorMatrix type="matrix" values="0 0 0 0 0 0 0 0 0 0 0 0 0 0 0 0 0 0 0.0196802 0"/>
<feBlend mode="normal" in2="BackgroundImageFix" result="effect1_dropShadow_17026_1239"/>
<feColorMatrix in="SourceAlpha" type="matrix" values="0 0 0 0 0 0 0 0 0 0 0 0 0 0 0 0 0 0 127 0" result="hardAlpha"/>
<feOffset dy="8.82156"/>
<feGaussianBlur stdDeviation="3.52863"/>
<feColorMatrix type="matrix" values="0 0 0 0 0 0 0 0 0 0 0 0 0 0 0 0 0 0 0.0282725 0"/>
<feBlend mode="normal" in2="effect1_dropShadow_17026_1239" result="effect2_dropShadow_17026_1239"/>
<feColorMatrix in="SourceAlpha" type="matrix" values="0 0 0 0 0 0 0 0 0 0 0 0 0 0 0 0 0 0 127 0" result="hardAlpha"/>
<feOffset dy="16.6102"/>
<feGaussianBlur stdDeviation="6.64409"/>
<feColorMatrix type="matrix" values="0 0 0 0 0 0 0 0 0 0 0 0 0 0 0 0 0 0 0.035 0"/>
<feBlend mode="normal" in2="effect2_dropShadow_17026_1239" result="effect3_dropShadow_17026_1239"/>
<feColorMatrix in="SourceAlpha" type="matrix" values="0 0 0 0 0 0 0 0 0 0 0 0 0 0 0 0 0 0 127 0" result="hardAlpha"/>
<feOffset dy="29.6298"/>
<feGaussianBlur stdDeviation="11.8519"/>
<feColorMatrix type="matrix" values="0 0 0 0 0 0 0 0 0 0 0 0 0 0 0 0 0 0 0.0417275 0"/>
<feBlend mode="normal" in2="effect3_dropShadow_17026_1239" result="effect4_dropShadow_17026_1239"/>
<feColorMatrix in="SourceAlpha" type="matrix" values="0 0 0 0 0 0 0 0 0 0 0 0 0 0 0 0 0 0 127 0" result="hardAlpha"/>
<feOffset dy="55.4193"/>
<feGaussianBlur stdDeviation="22.1677"/>
<feColorMatrix type="matrix" values="0 0 0 0 0 0 0 0 0 0 0 0 0 0 0 0 0 0 0.0503198 0"/>
<feBlend mode="normal" in2="effect4_dropShadow_17026_1239" result="effect5_dropShadow_17026_1239"/>
<feColorMatrix in="SourceAlpha" type="matrix" values="0 0 0 0 0 0 0 0 0 0 0 0 0 0 0 0 0 0 127 0" result="hardAlpha"/>
<feOffset dy="132.653"/>
<feGaussianBlur stdDeviation="53.0612"/>
<feColorMatrix type="matrix" values="0 0 0 0 0 0 0 0 0 0 0 0 0 0 0 0 0 0 0.07 0"/>
<feBlend mode="normal" in2="effect5_dropShadow_17026_1239" result="effect6_dropShadow_17026_1239"/>
<feBlend mode="normal" in="SourceGraphic" in2="effect6_dropShadow_17026_1239" result="shape"/>
</filter>
<clipPath id="clip0_17026_1239">
<rect width="82.4258" height="16.0638" fill="white" transform="translate(129.676 16.9688)"/>
</clipPath>
</defs>
</svg>
