<svg width="16" height="14" viewBox="0 0 16 14" fill="none" xmlns="http://www.w3.org/2000/svg">
<path d="M8 3.55887V0.999867C8.00032 0.802244 8.05913 0.609138 8.16902 0.444884C8.27891 0.28063 8.43496 0.152578 8.6175 0.0768652C8.80004 0.00115258 9.00091 -0.0188328 9.1948 0.0194282C9.38868 0.0576892 9.5669 0.152484 9.707 0.291867L16 6.49987L9.707 12.7069C9.61435 12.8001 9.50419 12.874 9.38285 12.9245C9.26152 12.9749 9.13141 13.0009 9 13.0009C8.86859 13.0009 8.73848 12.9749 8.61715 12.9245C8.49581 12.874 8.38565 12.8001 8.293 12.7069C8.10545 12.5194 8.00006 12.2651 8 11.9999V9.51087C5.25 9.57887 2.245 10.0769 0 13.4999V12.4999C0 7.86687 3.5 4.05687 8 3.55887Z" fill="#3066B7"/>
</svg>
