<svg width="24" height="24" viewBox="0 0 24 24" fill="none" xmlns="http://www.w3.org/2000/svg">
<path d="M12 9.05887V6.49987C12.0003 6.30224 12.0591 6.10914 12.169 5.94488C12.2789 5.78063 12.435 5.65258 12.6175 5.57687C12.8 5.50115 13.0009 5.48117 13.1948 5.51943C13.3887 5.55769 13.5669 5.65248 13.707 5.79187L20 11.9999L13.707 18.2069C13.6143 18.3001 13.5042 18.374 13.3829 18.4245C13.2615 18.4749 13.1314 18.5009 13 18.5009C12.8686 18.5009 12.7385 18.4749 12.6171 18.4245C12.4958 18.374 12.3857 18.3001 12.293 18.2069C12.1055 18.0194 12.0001 17.7651 12 17.4999V15.0109C9.25 15.0789 6.245 15.5769 4 18.9999V17.9999C4 13.3669 7.5 9.55687 12 9.05887Z" fill="#3066B7"/>
</svg>
