<svg width="506" height="40" viewBox="0 0 506 40" fill="none" xmlns="http://www.w3.org/2000/svg">
<path d="M2.75 27L61.3789 12.8777C64.6916 12.0798 67.1764 15.8772 65.1188 18.5932V18.5932C63.0351 21.3436 65.6076 25.175 68.9421 24.2876L90.6278 18.5164C100.783 15.8139 95.699 42.1079 104.25 36V36C106.728 34.23 166.562 21.6258 206.401 13.436C214.385 11.7945 222.097 19.6738 230.205 20.5138C230.85 20.5807 231.531 20.5798 232.25 20.5C239.064 19.7429 318.07 9.67063 362.97 3.93094C367.576 3.34207 372.173 4.92258 375.456 8.20633L382.39 15.1404C385.761 18.5106 390.532 20.0785 395.244 19.3645L503.25 3" stroke="#E2136E" stroke-width="5" stroke-linecap="round"/>
</svg>
