<svg width="342" height="289" viewBox="0 0 342 289" fill="none" xmlns="http://www.w3.org/2000/svg">
<g filter="url(#filter0_dddddd_17026_1240)">
<rect x="106.812" y="0.5" width="128.154" height="49" rx="6.03077" fill="white"/>
<rect x="107.189" y="0.876923" width="127.4" height="48.2462" rx="5.65385" stroke="#E0E0E0" stroke-width="0.753846"/>
<path d="M137.922 17.084C133.587 17.084 130.061 20.6345 130.061 24.9992C130.061 26.7302 130.616 28.3357 131.558 29.6386L130.579 32.5795L133.601 31.6071C134.844 32.4355 136.327 32.9148 137.927 32.9148C142.261 32.9148 145.787 29.3643 145.787 24.9995C145.787 20.6347 142.261 17.0842 137.927 17.0842H137.922V17.084Z" fill="#25D366"/>
<path d="M135.727 21.1042C135.574 20.7365 135.459 20.7227 135.228 20.7132C135.14 20.7075 135.052 20.7044 134.964 20.7041C134.664 20.7041 134.35 20.7924 134.16 20.9879C133.929 21.2252 133.356 21.7789 133.356 22.9143C133.356 24.0497 134.179 25.148 134.29 25.3017C134.405 25.4551 135.893 27.819 138.204 28.7824C140.011 29.5363 140.547 29.4663 140.958 29.378C141.559 29.2476 142.312 28.8007 142.502 28.2611C142.691 27.7212 142.691 27.2605 142.636 27.1628C142.58 27.0651 142.428 27.0094 142.197 26.8928C141.966 26.7766 140.842 26.2181 140.63 26.1437C140.422 26.0645 140.223 26.0927 140.066 26.3159C139.844 26.6276 139.627 26.9441 139.451 27.1348C139.313 27.2838 139.086 27.3023 138.897 27.2232C138.643 27.1163 137.931 26.8646 137.053 26.0783C136.374 25.4689 135.912 24.7103 135.777 24.4825C135.643 24.2499 135.764 24.1148 135.87 23.9891C135.985 23.8449 136.096 23.7424 136.212 23.6076C136.327 23.4727 136.392 23.4027 136.466 23.2446C136.545 23.091 136.489 22.9329 136.434 22.8166C136.378 22.7003 135.916 21.5649 135.727 21.1042Z" fill="#FEFEFE"/>
<path d="M209.923 27.7122C209.874 27.9581 209.789 28.1669 209.673 28.3511C209.557 28.5353 209.405 28.683 209.21 28.7996C209.02 28.9103 208.783 28.9717 208.502 28.9717C208.221 28.9717 207.989 28.9165 207.8 28.7996C207.612 28.6885 207.451 28.535 207.33 28.3511C207.214 28.1669 207.129 27.9578 207.074 27.7122C207.02 27.4683 206.994 27.2188 206.995 26.9687C206.995 26.7107 207.019 26.4526 207.068 26.2132C207.117 25.9672 207.202 25.7523 207.318 25.5681C207.434 25.3773 207.586 25.23 207.781 25.1075C207.971 24.9906 208.209 24.9292 208.489 24.9292C208.77 24.9292 208.995 24.9906 209.185 25.1075C209.374 25.2255 209.535 25.3852 209.655 25.5743C209.777 25.7647 209.862 25.9858 209.917 26.2256C209.972 26.4712 209.996 26.7169 209.996 26.9691C209.996 27.2212 209.972 27.4665 209.923 27.7125V27.7122ZM211.546 25.7281C211.43 25.3166 211.259 24.9602 211.027 24.647C210.789 24.3399 210.496 24.0877 210.143 23.9035C209.789 23.7193 209.362 23.621 208.867 23.621C208.477 23.621 208.123 23.701 207.8 23.8545C207.476 24.008 207.208 24.2599 207 24.598H206.976V23.7931H205.341V32.3139H207.062V29.3219H207.086C207.289 29.6223 207.567 29.8642 207.892 30.0222C208.221 30.1819 208.575 30.262 208.965 30.262C209.423 30.262 209.826 30.1698 210.173 29.9915C210.509 29.8183 210.803 29.573 211.034 29.2725C211.266 28.9717 211.436 28.6274 211.546 28.2345C211.662 27.8412 211.717 27.4362 211.717 27.0118C211.717 26.5634 211.662 26.1335 211.546 25.7216V25.7278L211.546 25.7281ZM203.059 27.7122C203.011 27.9581 202.926 28.1669 202.809 28.3511C202.693 28.5353 202.541 28.683 202.346 28.7996C202.157 28.9103 201.919 28.9717 201.638 28.9717C201.358 28.9717 201.132 28.9165 200.937 28.7996C200.748 28.6881 200.587 28.535 200.467 28.3511C200.351 28.1669 200.266 27.9578 200.211 27.7122C200.157 27.4683 200.13 27.2188 200.131 26.9687C200.131 26.7107 200.156 26.4526 200.204 26.2132C200.253 25.9672 200.338 25.7523 200.454 25.5681C200.57 25.3773 200.723 25.23 200.918 25.1075C201.107 24.9906 201.345 24.9292 201.625 24.9292C201.906 24.9292 202.132 24.9906 202.321 25.1075C202.511 25.2255 202.671 25.3849 202.791 25.5743C202.912 25.7647 202.998 25.9858 203.053 26.2256C203.108 26.4712 203.132 26.7169 203.132 26.9691C203.132 27.2212 203.108 27.4665 203.059 27.7125L203.059 27.7122ZM204.163 24.647C203.932 24.3399 203.633 24.0877 203.279 23.9035C202.925 23.7193 202.498 23.621 202.004 23.621C201.613 23.621 201.259 23.701 200.936 23.8545C200.613 24.008 200.344 24.2599 200.137 24.598H200.112V23.7931H198.477V32.3139H200.198V29.3219H200.223C200.426 29.6223 200.703 29.8642 201.028 30.0222C201.357 30.1819 201.711 30.262 202.102 30.262C202.565 30.262 202.962 30.1698 203.31 29.9915C203.645 29.8183 203.939 29.573 204.17 29.2725C204.402 28.9717 204.573 28.6274 204.689 28.2345C204.802 27.8367 204.859 27.4255 204.86 27.0118C204.86 26.5634 204.805 26.1335 204.689 25.7216C204.573 25.31 204.402 24.9536 204.164 24.6404V24.6466L204.163 24.647ZM192.84 26.7355L193.968 23.5347H193.993L195.085 26.7355H192.84ZM193.023 21.3848L189.747 30.1019H191.663L192.34 28.1606H195.579L196.232 30.1019H198.208L194.969 21.3848H193.017H193.023ZM189.606 27.3375C189.49 27.1409 189.344 26.9691 189.155 26.8338C188.972 26.6986 188.758 26.5941 188.52 26.5082C188.279 26.4285 188.035 26.3588 187.788 26.2994C187.544 26.2439 187.306 26.1887 187.074 26.1397C186.842 26.0907 186.629 26.0352 186.452 25.9738C186.269 25.9124 186.123 25.8327 186.013 25.734C185.897 25.6357 185.842 25.5129 185.842 25.3531C185.842 25.2241 185.872 25.1196 185.939 25.0396C186.006 24.9599 186.086 24.9043 186.177 24.8615C186.269 24.8184 186.372 24.7939 186.489 24.7818C186.594 24.7701 186.7 24.7639 186.806 24.7636C187.111 24.7636 187.379 24.825 187.605 24.9416C187.831 25.0582 187.959 25.2855 187.977 25.6174H189.612C189.582 25.2241 189.478 24.9047 189.313 24.6466C189.149 24.3886 188.941 24.1861 188.691 24.0322C188.441 23.8783 188.154 23.7683 187.837 23.7007C187.52 23.633 187.19 23.6023 186.849 23.6023C186.507 23.6023 186.178 23.633 185.854 23.6944C185.531 23.7559 185.238 23.8604 184.982 24.0139C184.72 24.1674 184.512 24.3703 184.36 24.6283C184.201 24.8864 184.122 25.2245 184.122 25.6295C184.122 25.9062 184.177 26.1394 184.293 26.3298C184.403 26.5206 184.555 26.68 184.738 26.809C184.927 26.9318 185.135 27.0363 185.373 27.1164C185.61 27.1964 185.855 27.264 186.105 27.3192C186.721 27.4482 187.197 27.5773 187.545 27.7063C187.886 27.8353 188.057 28.032 188.057 28.29C188.057 28.4435 188.02 28.5726 187.947 28.6771C187.875 28.7792 187.782 28.863 187.672 28.9227C187.562 28.9841 187.44 29.0272 187.306 29.058C187.18 29.0869 187.051 29.1014 186.922 29.1011C186.751 29.1011 186.586 29.0828 186.434 29.0397C186.275 28.9965 186.135 28.9348 186.013 28.8492C185.891 28.7633 185.793 28.6526 185.714 28.5177C185.635 28.3825 185.598 28.2227 185.598 28.0385H183.963C183.981 28.4622 184.073 28.8123 184.25 29.0952C184.421 29.3781 184.646 29.5989 184.915 29.771C185.183 29.9432 185.495 30.0657 185.842 30.1395C186.19 30.2133 186.544 30.2502 186.91 30.2502C187.276 30.2502 187.618 30.2133 187.959 30.1453C188.301 30.0781 188.606 29.9549 188.875 29.7831C189.143 29.6113 189.357 29.384 189.521 29.1073C189.686 28.8247 189.771 28.4808 189.771 28.063C189.771 27.7684 189.717 27.5224 189.6 27.3258L189.606 27.3385V27.3375ZM182.486 21.9009H180.766V23.7931H179.722V24.954H180.766V28.6771C180.766 28.9965 180.82 29.2484 180.924 29.445C181.028 29.6417 181.174 29.789 181.357 29.8997C181.54 30.0042 181.748 30.0777 181.986 30.1146C182.236 30.1522 182.489 30.1705 182.742 30.1698C182.913 30.1698 183.084 30.1636 183.267 30.1578C183.428 30.1522 183.589 30.1357 183.749 30.1084V28.763C183.664 28.782 183.579 28.7944 183.493 28.7999C183.399 28.8071 183.306 28.8113 183.212 28.8123C182.919 28.8123 182.73 28.7633 182.633 28.6647C182.535 28.5667 182.486 28.3697 182.486 28.0813V24.9543H183.749V23.7935H182.486V21.9012L182.486 21.9009ZM177.55 27.6632C177.55 27.7611 177.538 27.8905 177.52 28.0565C177.499 28.2262 177.443 28.3894 177.355 28.5356C177.264 28.6954 177.129 28.8306 176.94 28.9476C176.757 29.0642 176.489 29.1197 176.153 29.1197C176.019 29.1197 175.885 29.1073 175.75 29.0828C175.622 29.058 175.506 29.0148 175.409 28.9538C175.311 28.8924 175.238 28.8123 175.177 28.7019C175.122 28.5974 175.091 28.4687 175.091 28.3086C175.091 28.1486 175.122 28.0137 175.177 27.9033C175.232 27.7984 175.311 27.7125 175.403 27.639C175.494 27.5714 175.604 27.5162 175.732 27.4734C175.86 27.4307 175.982 27.3996 176.116 27.3751C176.254 27.3513 176.392 27.3309 176.531 27.3137C176.672 27.2954 176.8 27.2768 176.928 27.2523C177.056 27.2278 177.172 27.1971 177.282 27.1602C177.392 27.1233 177.483 27.0743 177.556 27.0067V27.6518L177.55 27.6639L177.55 27.6632ZM179.271 28.7012V25.4146C179.271 25.0337 179.186 24.7266 179.015 24.4931C178.844 24.2595 178.624 24.0815 178.362 23.9525C178.094 23.8235 177.801 23.7376 177.477 23.6886C177.16 23.6448 176.84 23.6223 176.52 23.621C176.172 23.621 175.824 23.6579 175.483 23.7255C175.141 23.7931 174.83 23.9097 174.555 24.0757C174.285 24.2375 174.054 24.4579 173.878 24.7208C173.701 24.9913 173.597 25.329 173.573 25.7344H175.294C175.324 25.3904 175.44 25.151 175.635 25.0033C175.83 24.8557 176.093 24.7822 176.434 24.7822C176.587 24.7822 176.733 24.7943 176.868 24.8129C176.993 24.8295 177.113 24.8712 177.221 24.9357C177.325 24.9971 177.404 25.083 177.466 25.1938C177.527 25.3045 177.557 25.4515 177.557 25.6422C177.563 25.8203 177.514 25.9558 177.399 26.0538C177.283 26.1459 177.13 26.2197 176.935 26.2687C176.74 26.3177 176.52 26.3546 176.27 26.3795C176.02 26.4043 175.764 26.4347 175.507 26.4778C175.251 26.5209 174.995 26.5758 174.739 26.6434C174.482 26.711 174.256 26.8155 174.061 26.957C173.86 27.0981 173.701 27.2823 173.573 27.5097C173.445 27.7432 173.384 28.0382 173.384 28.3945C173.384 28.7202 173.439 29.0028 173.549 29.236C173.652 29.4637 173.807 29.6634 174.001 29.8197C174.202 29.9773 174.432 30.0943 174.678 30.1636C174.934 30.2375 175.215 30.274 175.514 30.274C175.904 30.274 176.282 30.2188 176.654 30.1019C177.022 29.9887 177.356 29.7838 177.624 29.5061C177.63 29.6106 177.649 29.7148 177.667 29.8193C177.685 29.9173 177.716 30.0222 177.747 30.1202H179.492C179.412 29.9911 179.351 29.7945 179.321 29.5364C179.288 29.2653 179.272 28.9924 179.272 28.7195V28.7005L179.271 28.7012ZM172.182 24.3396C172.011 24.1184 171.779 23.9404 171.486 23.8173C171.193 23.6882 170.815 23.6268 170.351 23.6268C170.028 23.6268 169.699 23.7127 169.357 23.8787C169.016 24.0446 168.741 24.3147 168.522 24.6773H168.485V21.3906H166.764V30.1081H168.485V26.7969C168.485 26.1518 168.589 25.6912 168.802 25.4083C169.01 25.1258 169.351 24.9906 169.821 24.9906C170.23 24.9906 170.523 25.1196 170.681 25.3773C170.84 25.6353 170.926 26.0224 170.926 26.5444V30.1077H172.646V26.2253C172.646 25.832 172.61 25.476 172.542 25.1565C172.475 24.837 172.353 24.5607 172.182 24.3392L172.182 24.3396ZM163.085 27.3989H163.061L161.584 21.391H159.803L158.302 27.3254H158.278L156.905 21.391H155.002L157.295 30.1084H159.223L160.663 24.174H160.687L162.151 30.1084H164.043L165.08 26.238L166.373 21.391H164.506L163.085 27.3989Z" fill="#272525"/>
</g>
<defs>
<filter id="filter0_dddddd_17026_1240" x="0.689842" y="0.5" width="340.399" height="287.776" filterUnits="userSpaceOnUse" color-interpolation-filters="sRGB">
<feFlood flood-opacity="0" result="BackgroundImageFix"/>
<feColorMatrix in="SourceAlpha" type="matrix" values="0 0 0 0 0 0 0 0 0 0 0 0 0 0 0 0 0 0 127 0" result="hardAlpha"/>
<feOffset dy="3.67085"/>
<feGaussianBlur stdDeviation="1.46834"/>
<feColorMatrix type="matrix" values="0 0 0 0 0 0 0 0 0 0 0 0 0 0 0 0 0 0 0.0196802 0"/>
<feBlend mode="normal" in2="BackgroundImageFix" result="effect1_dropShadow_17026_1240"/>
<feColorMatrix in="SourceAlpha" type="matrix" values="0 0 0 0 0 0 0 0 0 0 0 0 0 0 0 0 0 0 127 0" result="hardAlpha"/>
<feOffset dy="8.82156"/>
<feGaussianBlur stdDeviation="3.52863"/>
<feColorMatrix type="matrix" values="0 0 0 0 0 0 0 0 0 0 0 0 0 0 0 0 0 0 0.0282725 0"/>
<feBlend mode="normal" in2="effect1_dropShadow_17026_1240" result="effect2_dropShadow_17026_1240"/>
<feColorMatrix in="SourceAlpha" type="matrix" values="0 0 0 0 0 0 0 0 0 0 0 0 0 0 0 0 0 0 127 0" result="hardAlpha"/>
<feOffset dy="16.6102"/>
<feGaussianBlur stdDeviation="6.64409"/>
<feColorMatrix type="matrix" values="0 0 0 0 0 0 0 0 0 0 0 0 0 0 0 0 0 0 0.035 0"/>
<feBlend mode="normal" in2="effect2_dropShadow_17026_1240" result="effect3_dropShadow_17026_1240"/>
<feColorMatrix in="SourceAlpha" type="matrix" values="0 0 0 0 0 0 0 0 0 0 0 0 0 0 0 0 0 0 127 0" result="hardAlpha"/>
<feOffset dy="29.6298"/>
<feGaussianBlur stdDeviation="11.8519"/>
<feColorMatrix type="matrix" values="0 0 0 0 0 0 0 0 0 0 0 0 0 0 0 0 0 0 0.0417275 0"/>
<feBlend mode="normal" in2="effect3_dropShadow_17026_1240" result="effect4_dropShadow_17026_1240"/>
<feColorMatrix in="SourceAlpha" type="matrix" values="0 0 0 0 0 0 0 0 0 0 0 0 0 0 0 0 0 0 127 0" result="hardAlpha"/>
<feOffset dy="55.4193"/>
<feGaussianBlur stdDeviation="22.1677"/>
<feColorMatrix type="matrix" values="0 0 0 0 0 0 0 0 0 0 0 0 0 0 0 0 0 0 0.0503198 0"/>
<feBlend mode="normal" in2="effect4_dropShadow_17026_1240" result="effect5_dropShadow_17026_1240"/>
<feColorMatrix in="SourceAlpha" type="matrix" values="0 0 0 0 0 0 0 0 0 0 0 0 0 0 0 0 0 0 127 0" result="hardAlpha"/>
<feOffset dy="132.653"/>
<feGaussianBlur stdDeviation="53.0612"/>
<feColorMatrix type="matrix" values="0 0 0 0 0 0 0 0 0 0 0 0 0 0 0 0 0 0 0.07 0"/>
<feBlend mode="normal" in2="effect5_dropShadow_17026_1240" result="effect6_dropShadow_17026_1240"/>
<feBlend mode="normal" in="SourceGraphic" in2="effect6_dropShadow_17026_1240" result="shape"/>
</filter>
</defs>
</svg>
